<svg width="120" height="120" viewBox="0 0 120 120" fill="none" xmlns="http://www.w3.org/2000/svg">
<path d="M37.602 46.4491C42.9683 33.5125 63.1502 25.5748 72.3335 22.7305C59.1449 51.0106 77.2012 55.837 88.9472 60.1499C105.901 66.3753 109.413 81.2341 109.668 87.4733C108.927 100.613 95.9317 105.594 88.3271 106.594C87.7876 106.664 87.2613 106.808 86.7615 107.024C75.8493 111.725 62.7784 109.643 55.7769 107.473C54.3242 107.023 52.7447 107.185 51.3165 107.708C46.6572 109.413 39.0066 110.099 35.3434 109.989C14.7645 109.371 10.0345 92.2254 10.3489 83.5796C10.8768 63.1653 25.5675 54.2238 34.9568 49.4595C36.186 48.8358 37.0738 47.7223 37.602 46.4491Z" fill="url(#paint0_linear_1338_6541)"/>
<mask id="mask0_1338_6541" style="mask-type:alpha" maskUnits="userSpaceOnUse" x="10" y="22" width="100" height="88">
<path d="M37.6025 46.4491C42.9688 33.5125 63.1507 25.5748 72.334 22.7305C59.1454 51.0106 77.2017 55.837 88.9476 60.1499C105.902 66.3753 109.414 81.2341 109.669 87.4733C108.928 100.613 95.9322 105.594 88.3276 106.594C87.7881 106.664 87.2618 106.808 86.762 107.024C75.8498 111.725 62.7789 109.643 55.7774 107.473C54.3247 107.023 52.7452 107.185 51.3169 107.708C46.6576 109.413 39.0071 110.099 35.3439 109.989C14.765 109.371 10.035 92.2254 10.3493 83.5796C10.8773 63.1653 25.568 54.2238 34.9572 49.4595C36.1864 48.8358 37.0743 47.7223 37.6025 46.4491Z" fill="url(#paint1_linear_1338_6541)"/>
</mask>
<g mask="url(#mask0_1338_6541)">
<path d="M56.6859 27.6709C42.919 45.5306 23.46 72.9147 57.3929 108.686C26.8534 108.686 16.5857 48.285 56.6859 27.6709Z" fill="url(#paint2_linear_1338_6541)"/>
<path d="M71.7084 77.0536C52.5951 55.0586 64.826 35.2673 73.3306 28.1211C58.4648 55.2222 75.0569 65.8236 85.4238 74.7625C102.885 89.8186 94.9608 105.366 88.8158 111.257C94.0071 103.795 79.5739 85.3454 71.7084 77.0536Z" fill="url(#paint3_linear_1338_6541)"/>
<path d="M62.9707 85.637C43.235 87.6337 27.006 76.3981 28.3837 65.4485L44.5893 49.833L91.1581 56.7074C98.3708 75.3252 77.1412 83.446 62.9707 85.637Z" fill="#BFE3FF"/>
</g>
<path d="M74.6527 26.2673C79.9163 33.1932 83.7184 41.116 85.8282 49.5554L87.7256 57.1451C89.7344 65.1802 85.7064 73.5016 78.158 76.9106L74.7513 78.4491C64.1062 83.2565 51.9082 83.2565 41.2631 78.4491L37.8564 76.9106C30.308 73.5016 26.28 65.1802 28.2888 57.1451L30.1862 49.5554C32.296 41.116 36.0981 33.1932 41.3618 26.2673L41.6337 25.9094C42.9118 24.2278 44.3337 22.6606 45.8836 21.2256L49.2789 18.0818C54.2042 13.5213 61.8102 13.5213 66.7355 18.0818L70.1309 21.2256C71.6807 22.6606 73.1026 24.2278 74.3807 25.9094L74.6527 26.2673Z" fill="url(#paint4_linear_1338_6541)"/>
<ellipse opacity="0.3" cx="37.2064" cy="67.1063" rx="2.01569" ry="3.47937" fill="white"/>
<ellipse opacity="0.3" cx="54.6832" cy="74.0653" rx="2.01569" ry="3.47937" fill="white"/>
<ellipse opacity="0.3" cx="66.6636" cy="60.1483" rx="2.01569" ry="3.47937" fill="white"/>
<ellipse opacity="0.3" cx="78.1229" cy="68.7831" rx="2.01569" ry="3.47937" fill="white"/>
<ellipse opacity="0.3" cx="49.773" cy="54.8368" rx="2.01569" ry="3.47937" fill="white"/>
<ellipse opacity="0.3" cx="37.4571" cy="46.3534" rx="2.01569" ry="3.47937" fill="white"/>
<ellipse opacity="0.3" cx="64.6488" cy="42.2655" rx="2.01569" ry="3.47937" fill="white"/>
<ellipse opacity="0.3" cx="49.0084" cy="35.3065" rx="2.01569" ry="3.47937" fill="white"/>
<ellipse opacity="0.3" cx="55.9925" cy="20.8954" rx="2.01569" ry="3.47937" fill="white"/>
<ellipse opacity="0.3" cx="67.5086" cy="26.2098" rx="2.01569" ry="3.47937" fill="white"/>
<ellipse opacity="0.3" cx="81.3394" cy="49.8329" rx="2.01569" ry="3.47937" fill="white"/>
<defs>
<linearGradient id="paint0_linear_1338_6541" x1="60.0013" y1="22.7305" x2="60.0013" y2="110" gradientUnits="userSpaceOnUse">
<stop offset="0.576923" stop-color="#F0FAFF"/>
<stop offset="1" stop-color="#D0ECFF"/>
</linearGradient>
<linearGradient id="paint1_linear_1338_6541" x1="60.0018" y1="22.7305" x2="60.0018" y2="110" gradientUnits="userSpaceOnUse">
<stop stop-color="#F0F3FF"/>
<stop offset="1" stop-color="#DEECFF"/>
</linearGradient>
<linearGradient id="paint2_linear_1338_6541" x1="43.0564" y1="28.1234" x2="43.0564" y2="108.811" gradientUnits="userSpaceOnUse">
<stop stop-color="#C5E3F4"/>
<stop offset="1" stop-color="#BDDCF6"/>
</linearGradient>
<linearGradient id="paint3_linear_1338_6541" x1="78.8095" y1="28.1211" x2="78.8095" y2="111.257" gradientUnits="userSpaceOnUse">
<stop stop-color="#C5E7F4"/>
<stop offset="1" stop-color="#C2DFF8"/>
</linearGradient>
<linearGradient id="paint4_linear_1338_6541" x1="58.0072" y1="10" x2="58.0072" y2="86.0109" gradientUnits="userSpaceOnUse">
<stop stop-color="#FFF3BB"/>
<stop offset="1" stop-color="#FF3482"/>
</linearGradient>
</defs>
</svg>
